<svg width="34" height="34" viewBox="0 0 34 34" fill="none" xmlns="http://www.w3.org/2000/svg">
<g clip-path="url(#clip0_228_191)">
<path d="M25.1753 23.3175C24.1215 23.3175 23.1398 23.6239 22.3121 24.1507L13.9585 18.3186C14.0926 17.8504 14.1659 17.3566 14.1659 16.8454C14.1659 16.3342 14.0926 15.8404 13.9585 15.3723L22.0866 9.6975C22.9587 10.317 24.024 10.6825 25.1752 10.6825C28.125 10.6825 30.5164 8.29109 30.5164 5.34126C30.5164 2.39144 28.1251 0 25.1753 0C22.2255 0 19.8341 2.39137 19.8341 5.34119C19.8341 5.73077 19.877 6.11019 19.9561 6.47605L11.6216 12.295C10.808 11.7939 9.85037 11.5042 8.82471 11.5042C5.87489 11.5042 3.48352 13.8956 3.48352 16.8454C3.48352 19.7953 5.87481 22.1866 8.82471 22.1866C9.85029 22.1866 10.808 21.897 11.6216 21.3959L20.0205 27.2597C19.8997 27.7058 19.8341 28.1746 19.8341 28.6588C19.8341 31.6086 22.2255 34 25.1753 34C28.1251 34 30.5165 31.6086 30.5165 28.6588C30.5165 25.709 28.1251 23.3175 25.1753 23.3175Z" fill="#00057E"/>
</g>
<defs>
<clipPath id="clip0_228_191">
<rect width="34" height="34" fill="white"/>
</clipPath>
</defs>
</svg>
