<svg width="36" height="36" viewBox="0 0 36 36" fill="none" xmlns="http://www.w3.org/2000/svg">
<path d="M11.2 11.9837C12.2697 11.0734 16.0118 1 17.3193 1C18.6268 1 22.8802 11.3769 23.95 11.9837C25.0198 12.5905 34.8798 12.5298 34.9986 14.1076C35.1175 15.6854 27.3902 22.1178 27.093 23.028C26.7959 23.9383 29.5063 33.769 28.1988 34.8613C26.8914 35.9536 17.3193 30.2359 17.3193 30.2359C17.3193 30.2359 7.84959 35.4681 6.77985 34.8613C5.7101 34.2545 8.42035 24.2417 8.47977 23.028C8.5392 21.8144 0.824752 16.1708 1.00304 14.1076C1.18134 12.0444 10.1303 12.8939 11.2 11.9837Z" stroke="#00057E" stroke-width="2"/>
</svg>
