<svg width="25" height="25" viewBox="0 0 25 25" fill="none" xmlns="http://www.w3.org/2000/svg">
<path d="M19.7684 15.4866C19.2559 14.9537 18.6376 14.6688 17.9824 14.6688C17.3325 14.6688 16.7089 14.9484 16.1752 15.4813L14.5055 17.1434C14.3681 17.0695 14.2307 17.0009 14.0986 16.9323C13.9084 16.8374 13.7287 16.7477 13.5755 16.6527C12.0114 15.6607 10.5899 14.368 9.22665 12.6954C8.56614 11.8617 8.12227 11.1599 7.79994 10.4476C8.23324 10.0519 8.63483 9.64033 9.02585 9.24459C9.17381 9.09685 9.32176 8.94384 9.46972 8.7961C10.5794 7.68805 10.5794 6.25286 9.46972 5.14482L8.02716 3.70435C7.86335 3.54078 7.69426 3.37194 7.53574 3.20309C7.21869 2.87596 6.88579 2.53826 6.54233 2.22168C6.02977 1.71514 5.41681 1.44604 4.77215 1.44604C4.12749 1.44604 3.50397 1.71514 2.97556 2.22168C2.97027 2.22696 2.97027 2.22696 2.96499 2.23223L1.16839 4.04204C0.492028 4.71743 0.106289 5.54055 0.0217433 6.49558C-0.105075 8.03629 0.349358 9.47148 0.698108 10.4107C1.55413 12.7165 2.83289 14.8534 4.74045 17.1434C7.05488 19.903 9.8396 22.0821 13.0206 23.6176C14.236 24.1927 15.8582 24.8734 17.6706 24.9894C17.7816 24.9947 17.8979 25 18.0035 25C19.2242 25 20.2493 24.562 21.0525 23.6914C21.0578 23.6809 21.0683 23.6756 21.0736 23.6651C21.3484 23.3326 21.6654 23.0319 21.9983 22.71C22.2255 22.4937 22.458 22.2668 22.6853 22.0294C23.2084 21.4859 23.4832 20.8527 23.4832 20.2037C23.4832 19.5494 23.2031 18.9216 22.6694 18.3939L19.7684 15.4866ZM21.6601 21.0427C21.6549 21.0427 21.6549 21.0479 21.6601 21.0427C21.4541 21.2643 21.2427 21.4648 21.0155 21.6864C20.672 22.0135 20.3233 22.3565 19.9956 22.7417C19.462 23.3115 18.8331 23.5806 18.0088 23.5806C17.9296 23.5806 17.845 23.5806 17.7658 23.5754C16.1964 23.4751 14.738 22.863 13.6442 22.3407C10.6534 20.8949 8.02716 18.8424 5.84482 16.2411C4.04294 14.0725 2.83817 12.0675 2.04027 9.9147C1.54885 8.60087 1.36919 7.57725 1.44845 6.61166C1.50129 5.99432 1.73908 5.48251 2.17766 5.04456L3.97954 3.2453C4.23846 3.00259 4.51323 2.87068 4.78272 2.87068C5.11562 2.87068 5.38511 3.07118 5.5542 3.24003C5.55948 3.2453 5.56477 3.25058 5.57005 3.25586C5.89238 3.55661 6.19886 3.86792 6.52119 4.20034C6.685 4.36918 6.85409 4.53803 7.02318 4.71215L8.46574 6.15261C9.02585 6.71191 9.02585 7.229 8.46574 7.7883C8.3125 7.94132 8.16454 8.09434 8.0113 8.24207C7.56744 8.69585 7.14471 9.11796 6.685 9.52952C6.67443 9.54007 6.66386 9.54535 6.65858 9.5559C6.20414 10.0097 6.28869 10.4529 6.3838 10.7537C6.38909 10.7695 6.39437 10.7853 6.39965 10.8011C6.77483 11.7087 7.30324 12.5635 8.10642 13.5818L8.1117 13.5871C9.57012 15.3811 11.1078 16.7793 12.804 17.8504C13.0206 17.9876 13.2426 18.0984 13.4539 18.204C13.6442 18.2989 13.8238 18.3886 13.9771 18.4836C13.9982 18.4942 14.0193 18.51 14.0405 18.5205C14.2201 18.6102 14.3892 18.6525 14.5636 18.6525C15.0022 18.6525 15.2769 18.3781 15.3668 18.2884L17.1739 16.4838C17.3536 16.3044 17.6389 16.0881 17.9718 16.0881C18.2995 16.0881 18.5689 16.2939 18.7327 16.4733C18.738 16.4786 18.738 16.4786 18.7433 16.4838L21.6549 19.3912C22.1991 19.9293 22.1991 20.4834 21.6601 21.0427Z" fill="black"/>
<path d="M13.5121 5.94676C14.8965 6.17892 16.1541 6.83319 17.1581 7.83571C18.1621 8.83823 18.812 10.094 19.0498 11.4764C19.1079 11.8247 19.4091 12.0674 19.7526 12.0674C19.7949 12.0674 19.8319 12.0621 19.8741 12.0569C20.2652 11.9935 20.5241 11.6242 20.4607 11.2337C20.1753 9.5611 19.3827 8.03622 18.1727 6.82792C16.9626 5.61962 15.4355 4.82815 13.7604 4.54323C13.3694 4.47991 13.0048 4.73846 12.9361 5.12363C12.8674 5.50881 13.1211 5.88344 13.5121 5.94676Z" fill="black"/>
<path d="M24.9891 11.028C24.5188 8.27373 23.2189 5.76743 21.2215 3.77295C19.2242 1.77846 16.7142 0.480461 13.9559 0.0108597C13.5702 -0.0577338 13.2056 0.206087 13.1369 0.591266C13.0735 0.981721 13.3324 1.34579 13.7234 1.41439C16.1858 1.83122 18.4315 2.99731 20.2176 4.77547C22.0036 6.5589 23.1661 8.80138 23.5835 11.2602C23.6417 11.6084 23.9429 11.8511 24.2863 11.8511C24.3286 11.8511 24.3656 11.8459 24.4079 11.8406C24.7936 11.7826 25.0578 11.4132 24.9891 11.028Z" fill="black"/>
</svg>
