<svg width="25" height="25" viewBox="0 0 25 25" fill="none" xmlns="http://www.w3.org/2000/svg">
<g clip-path="url(#clip0_122_173)">
<path d="M12.4997 0C5.59639 0 0 5.59656 0 12.4999C0 19.403 5.59639 25 12.4997 25C19.403 25 24.9998 19.403 24.9998 12.4999C24.9998 5.59656 19.403 0 12.4997 0ZM12.5 4.39054L19.8969 9.00309H5.10297L12.5 4.39054ZM19.9891 16.3687H19.9884C19.9884 17.1086 19.3888 17.7081 18.649 17.7081H6.3509C5.61106 17.7081 5.01155 17.1085 5.01155 16.3687V9.29659C5.01155 9.21834 5.01955 9.14226 5.03255 9.06751L12.1 13.4745C12.1086 13.4799 12.1179 13.4836 12.1268 13.4886C12.1361 13.4937 12.1456 13.4987 12.1551 13.5035C12.205 13.5292 12.2565 13.55 12.309 13.5636C12.3145 13.5651 12.3199 13.5657 12.3253 13.567C12.383 13.5806 12.4414 13.5891 12.4997 13.5891H12.5001C12.5005 13.5891 12.501 13.5891 12.501 13.5891C12.5593 13.5891 12.6177 13.5808 12.6754 13.567C12.6808 13.5656 12.6862 13.5651 12.6916 13.5636C12.7441 13.55 12.7954 13.5292 12.8455 13.5035C12.855 13.4987 12.8645 13.4937 12.8739 13.4886C12.8827 13.4836 12.892 13.4799 12.9007 13.4745L19.9681 9.06751C19.9811 9.14226 19.9891 9.21818 19.9891 9.29659V16.3687Z" fill="white"/>
</g>
<defs>
<clipPath id="clip0_122_173">
<rect width="25" height="25" fill="white"/>
</clipPath>
</defs>
</svg>
