<svg width="109" height="68" viewBox="0 0 109 68" fill="none" xmlns="http://www.w3.org/2000/svg">
<path d="M23.3328 17.4223L3.10822 33.6587L9.16283 33.6843L15.2174 33.7014L26.0834 25.5363C32.0528 21.0399 41.1645 14.1887 46.3165 10.3067L55.6922 3.25924L60.8186 7.36313C70.9096 15.4259 77.3389 20.5109 76.5555 19.7942C76.3426 19.6065 76.1808 19.4103 76.1978 19.3591C76.2063 19.3079 76.2234 19.1373 76.2319 18.9752L76.2404 18.6851L76.6321 19.0008C76.845 19.1799 76.9898 19.2738 76.9557 19.2226C76.8791 19.0946 69.4024 12.7553 61.6531 6.2369L55.6581 1.19449H49.6035H43.5574L23.3328 17.4223Z" fill="#111350"/>
<path d="M64.0375 7.79823C64.3441 8.07979 68.2868 11.339 68.4401 11.4329C68.5849 11.5267 68.7722 11.4243 70.1603 10.409L71.7101 9.27427L72.1103 9.56435C72.3317 9.71793 75.0056 11.7144 78.0457 13.9925C81.0943 16.2705 83.8023 18.3011 84.0748 18.5059C84.3473 18.7021 84.5602 18.8813 84.5431 18.8984C84.5261 18.9154 83.5809 19.0349 82.4398 19.1543L80.362 19.3847L79.4934 20.1611C79.0165 20.5962 75.4144 23.8981 71.4887 27.5157L64.3441 34.0853L67.8099 34.1109L71.2758 34.128L74.8694 30.9455C76.8535 29.1965 79.5445 26.8246 80.8559 25.6642C82.1673 24.5124 83.8449 23.0278 84.5942 22.3709L85.9397 21.1764L95.6646 28.4713C106.386 36.5255 105.798 36.0903 105.211 35.5699C104.546 34.9812 96.3032 27.8058 95.8178 27.3962C95.5794 27.1915 95.4006 26.9952 95.4176 26.9611C95.4431 26.927 94.796 26.3553 93.987 25.7069C93.1865 25.0499 91.0321 23.2155 89.2182 21.6371C86.7317 19.47 85.8716 18.7704 85.7524 18.813C85.5906 18.8642 85.4799 18.7789 76.3 11.2708L71.9145 7.68731H67.9121C64.5485 7.67878 63.9353 7.69585 64.0375 7.79823Z" fill="#111350"/>
<path d="M49.2203 22.3453V25.4851L49.876 25.5448C50.7021 25.613 54.0657 25.613 54.6533 25.5448L55.0961 25.4851V22.3453V19.197H52.1582H49.2203V22.3453Z" fill="#111350"/>
<path d="M56.3735 22.3453V25.4851L56.8248 25.5448C57.4039 25.613 60.7675 25.613 61.5936 25.5448L62.2493 25.4851V22.3453V19.197H59.3114H56.3735V22.3453Z" fill="#111350"/>
<path d="M77.1941 19.453C77.2793 19.5468 77.3645 19.6236 77.39 19.6236C77.4156 19.6236 77.3645 19.5468 77.2793 19.453C77.1941 19.3591 77.109 19.2823 77.0834 19.2823C77.0579 19.2823 77.109 19.3591 77.1941 19.453Z" fill="#111350"/>
<path d="M76.9813 20.1696C76.9813 20.1867 77.0494 20.2549 77.1345 20.3147C77.2623 20.4256 77.2708 20.4171 77.1601 20.2805C77.0494 20.144 76.9813 20.1014 76.9813 20.1696Z" fill="#111350"/>
<path d="M49.2203 29.734V32.9335H52.1582H55.0961V29.734V26.5345H52.1582H49.2203V29.734Z" fill="#111350"/>
<path d="M56.3735 29.6913V32.8482H59.3114H62.2493V29.6913V26.5345H59.3114H56.3735V29.6913Z" fill="#111350"/>
<path d="M95.4602 26.9952C95.4602 27.0123 95.6816 27.1915 95.9541 27.3877L96.4395 27.746L96.0137 27.3536C95.6305 27.0123 95.4602 26.8928 95.4602 26.9952Z" fill="#111350"/>
<path d="M63.5436 34.2303C63.3818 34.4351 63.0157 35.2371 63.0838 35.2371C63.1179 35.2371 63.3989 34.9897 63.6969 34.6825L64.2419 34.128H63.9354C63.7736 34.128 63.5947 34.1792 63.5436 34.2303Z" fill="#111350"/>
<path d="M32.0188 59.0414C30.3242 59.1267 29.2938 59.2547 27.761 59.5533C24.0737 60.2871 19.6626 61.6863 13.9827 63.9473C11.3854 64.9711 7.68113 66.5837 8.45606 66.3448C11.0363 65.5428 18.6493 63.6828 22.0129 63.0173C28.587 61.729 32.1636 61.5157 37.6391 62.0703C41.5733 62.4798 44.5793 63.0344 53.2227 64.9711C61.3977 66.797 64.6422 67.3772 68.934 67.7952C70.85 67.9829 75.6103 68.0085 77.0239 67.8464C81.0433 67.3772 85.5395 66.4045 91.3472 64.7493C94.5746 63.8364 99.7776 62.2238 99.701 62.1641C99.6925 62.1471 99.0283 62.2665 98.2278 62.4286C94.6512 63.1368 88.0431 64.2289 84.6454 64.664C77.9095 65.5343 73.7709 65.6025 68.5508 64.9285C65.0765 64.4763 62.1045 63.8876 55.309 62.3262C47.398 60.5004 44.3239 59.8946 40.7047 59.4339C38.0393 59.0926 34.3436 58.922 32.0188 59.0414Z" fill="#111350"/>
<path d="M4.09161 42.8182L2.40127 53H0.248566L1.93891 42.8182H4.09161ZM5.86274 42.8182H8.51757L10.193 49.6591H10.3123L14.2449 42.8182H16.8997L15.2093 53H13.1213L14.225 46.3729H14.1355L10.4167 52.9503H8.98987L7.45862 46.348H7.3741L6.26047 53H4.1724L5.86274 42.8182ZM27.1648 48.0483C26.9792 49.1354 26.6196 50.0585 26.0859 50.8175C25.5556 51.5765 24.9077 52.1532 24.142 52.5476C23.3797 52.942 22.5578 53.1392 21.6761 53.1392C20.7514 53.1392 19.9543 52.9287 19.2848 52.5078C18.6186 52.0869 18.1364 51.4787 17.8381 50.6832C17.5398 49.8845 17.4834 48.9216 17.669 47.7947C17.848 46.7043 18.2043 45.7796 18.7379 45.0206C19.2715 44.2583 19.9228 43.6783 20.6918 43.2805C21.4607 42.8795 22.2876 42.679 23.1726 42.679C24.0907 42.679 24.8828 42.8911 25.549 43.3153C26.2185 43.7396 26.7008 44.3527 26.9957 45.1548C27.294 45.9536 27.3504 46.9181 27.1648 48.0483ZM25.022 47.7947C25.138 47.0954 25.133 46.5088 25.0071 46.0348C24.8845 45.5575 24.6591 45.1963 24.331 44.951C24.0028 44.7057 23.5885 44.5831 23.0881 44.5831C22.5445 44.5831 22.0457 44.719 21.5916 44.9908C21.1409 45.2625 20.7597 45.657 20.4482 46.174C20.1399 46.6877 19.9261 47.3125 19.8068 48.0483C19.6875 48.7509 19.6908 49.3376 19.8168 49.8082C19.946 50.2789 20.1764 50.6352 20.5078 50.8771C20.8426 51.1158 21.2585 51.2351 21.7557 51.2351C22.2959 51.2351 22.7898 51.1025 23.2372 50.8374C23.688 50.5689 24.0675 50.1795 24.3757 49.669C24.6839 49.1553 24.8994 48.5305 25.022 47.7947ZM27.9341 53L29.6245 42.8182H33.7012C34.4502 42.8182 35.0568 42.9292 35.5208 43.1513C35.9881 43.3733 36.3146 43.6816 36.5002 44.076C36.6858 44.4671 36.7355 44.9179 36.6493 45.4283C36.5797 45.826 36.4389 46.174 36.2267 46.4723C36.0179 46.7706 35.7594 47.0159 35.4512 47.2081C35.1429 47.4003 34.8082 47.5362 34.4469 47.6158L34.427 47.7152C34.8115 47.7318 35.1578 47.8411 35.4661 48.0433C35.7743 48.2422 36.0047 48.5239 36.1571 48.8885C36.3096 49.2531 36.3444 49.6856 36.2615 50.1861C36.1721 50.7263 35.9583 51.2086 35.6202 51.6328C35.2821 52.0537 34.8314 52.3868 34.2679 52.6321C33.7078 52.8774 33.0466 53 32.2843 53H27.9341ZM30.3851 51.2401H32.1401C32.7367 51.2401 33.1924 51.1241 33.5073 50.892C33.8221 50.66 34.0111 50.3535 34.074 49.9723C34.1171 49.6906 34.089 49.442 33.9895 49.2266C33.8934 49.0111 33.7293 48.8421 33.4973 48.7195C33.2686 48.5968 32.9786 48.5355 32.6273 48.5355H30.8276L30.3851 51.2401ZM31.0762 47.0788H32.6721C32.9637 47.0788 33.2338 47.0275 33.4824 46.9247C33.7343 46.8187 33.9415 46.6695 34.1039 46.4773C34.2696 46.2817 34.374 46.0514 34.4171 45.7862C34.4767 45.415 34.3939 45.1184 34.1685 44.8963C33.9464 44.6709 33.5984 44.5582 33.1245 44.5582H31.4938L31.0762 47.0788ZM41.033 42.8182L39.3427 53H37.19L38.8803 42.8182H41.033ZM41.1138 53L42.8042 42.8182H44.9569L43.5648 51.2251H47.9299L47.6316 53H41.1138ZM52.9002 42.8182L51.2099 53H49.0572L50.7475 42.8182H52.9002ZM54.736 53H52.4292L57.6344 42.8182H60.4086L62.2282 53H59.9213L58.6834 45.1449H58.6039L54.736 53ZM55.263 48.9979H60.7118L60.4235 50.6783H54.9746L55.263 48.9979ZM58.4249 41.8338L59.8617 39.5717H61.8205L59.9263 41.8338H58.4249ZM63.4537 53L65.144 42.8182H69.161C69.93 42.8182 70.563 42.9541 71.0602 43.2259C71.5607 43.4976 71.912 43.8838 72.1142 44.3842C72.3197 44.8814 72.3677 45.468 72.2583 46.1442C72.1457 46.8203 71.902 47.4003 71.5275 47.8842C71.1563 48.3681 70.6724 48.741 70.0758 49.0028C69.4825 49.2614 68.7948 49.3906 68.0126 49.3906H65.323L65.6213 47.6605H67.9579C68.3689 47.6605 68.7202 47.6042 69.0119 47.4915C69.3036 47.3788 69.5339 47.2098 69.7029 46.9844C69.8753 46.759 69.988 46.4789 70.041 46.1442C70.0974 45.8028 70.0775 45.5178 69.9814 45.2891C69.8852 45.0571 69.7112 44.8814 69.4593 44.7621C69.2074 44.6394 68.876 44.5781 68.465 44.5781H67.0133L65.6064 53H63.4537ZM69.7179 48.3665L71.4828 53H69.1064L67.3961 48.3665H69.7179ZM76.5662 42.8182L74.8759 53H72.7232L74.4135 42.8182H76.5662ZM78.402 53H76.0952L81.3004 42.8182H84.0746L85.8942 53H83.5874L82.3494 45.1449H82.2699L78.402 53ZM78.929 48.9979H84.3778L84.0895 50.6783H78.6406L78.929 48.9979ZM96.127 42.8182H98.2548L97.0815 49.9325C96.9688 50.5921 96.7302 51.1622 96.3656 51.6428C96.001 52.12 95.5386 52.4896 94.9785 52.7514C94.4184 53.0099 93.7936 53.1392 93.1042 53.1392C92.4844 53.1392 91.9409 53.0298 91.4735 52.8111C91.0095 52.5923 90.6665 52.2609 90.4444 51.8168C90.2257 51.3726 90.171 50.8125 90.2804 50.1364H92.4082C92.3751 50.4115 92.3916 50.6435 92.4579 50.8324C92.5275 51.0213 92.6452 51.1655 92.8109 51.2649C92.9766 51.3643 93.1838 51.4141 93.4324 51.4141C93.7008 51.4141 93.9395 51.3561 94.1483 51.2401C94.3571 51.1241 94.5294 50.9534 94.6653 50.728C94.8045 50.5026 94.9023 50.2275 94.9586 49.9027L96.127 42.8182ZM98.3443 53L100.035 42.8182H102.187L101.491 47.0192H105.861L106.557 42.8182H108.705L107.015 53H104.867L105.563 48.794H101.193L100.497 53H98.3443Z" fill="#111350"/>
</svg>
