<svg width="15" height="15" viewBox="0 0 15 15" fill="none" xmlns="http://www.w3.org/2000/svg">
<g clip-path="url(#clip0_261_3195)">
<path d="M11.0992 8.61921C11.07 8.60518 9.97647 8.06669 9.78215 7.99676C9.70281 7.96827 9.61783 7.94046 9.52744 7.94046C9.37978 7.94046 9.25574 8.01405 9.15911 8.15859C9.04988 8.32096 8.71919 8.70751 8.61702 8.82298C8.60367 8.83822 8.58546 8.85643 8.57455 8.85643C8.56476 8.85643 8.39552 8.78674 8.34429 8.76449C7.17122 8.25493 6.28082 7.02955 6.15872 6.82291C6.14129 6.7932 6.14056 6.77971 6.14041 6.77971C6.1447 6.76398 6.18414 6.72444 6.2045 6.70403C6.26406 6.6451 6.32859 6.56742 6.39103 6.49228C6.42059 6.45668 6.4502 6.42103 6.47927 6.38742C6.56986 6.28204 6.61018 6.20022 6.65694 6.10544L6.68143 6.05621C6.79559 5.82941 6.69809 5.63801 6.66658 5.57621C6.64072 5.52449 6.17898 4.4101 6.12989 4.29303C6.01184 4.01051 5.85585 3.87897 5.63908 3.87897C5.61897 3.87897 5.63908 3.87897 5.55473 3.88252C5.45202 3.88686 4.89268 3.96049 4.64538 4.11639C4.38312 4.28173 3.93945 4.80877 3.93945 5.73566C3.93945 6.56986 4.46884 7.35751 4.69613 7.65707C4.70177 7.66462 4.71215 7.67996 4.7272 7.70197C5.59764 8.97317 6.68275 9.91525 7.78276 10.3547C8.84177 10.7777 9.34325 10.8266 9.62835 10.8266H9.6284C9.7482 10.8266 9.8441 10.8172 9.92869 10.8089L9.98236 10.8038C10.3482 10.7713 11.1522 10.3547 11.335 9.84653C11.4791 9.44626 11.5171 9.00892 11.4212 8.8502C11.3556 8.74228 11.2425 8.68798 11.0992 8.61921Z" fill="white"/>
<path d="M7.63314 0C3.57067 0 0.265606 3.28023 0.265606 7.31216C0.265606 8.61623 0.614599 9.89274 1.27572 11.01L0.0103134 14.7427C-0.0132581 14.8123 0.0042744 14.8892 0.0557517 14.9416C0.0929108 14.9795 0.143317 15 0.194794 15C0.214518 15 0.234388 14.997 0.253771 14.9908L4.14598 13.754C5.21108 14.3231 6.41488 14.6235 7.63319 14.6235C11.6953 14.6235 15 11.3437 15 7.31216C15 3.28023 11.6953 0 7.63314 0ZM7.63314 13.1004C6.48676 13.1004 5.37642 12.7693 4.42197 12.143C4.38987 12.1219 4.35262 12.1111 4.31512 12.1111C4.2953 12.1111 4.27543 12.1142 4.25609 12.1203L2.30634 12.7401L2.93575 10.8831C2.95611 10.823 2.94593 10.7568 2.90843 10.7055C2.18161 9.7124 1.79741 8.53904 1.79741 7.31216C1.79741 4.12013 4.4153 1.52318 7.63309 1.52318C10.8505 1.52318 13.4681 4.12013 13.4681 7.31216C13.4681 10.5038 10.8506 13.1004 7.63314 13.1004Z" fill="white"/>
</g>
<defs>
<clipPath id="clip0_261_3195">
<rect width="15" height="15" fill="white"/>
</clipPath>
</defs>
</svg>
