<svg width="36" height="35" viewBox="0 0 36 35" fill="none" xmlns="http://www.w3.org/2000/svg">
<path d="M35.0513 15.1917L27.6147 8.51809C27.6186 8.48661 27.6186 8.45119 27.6186 8.41971V3.57978C27.6186 3.05644 27.2 2.6354 26.6798 2.6354C26.1595 2.6354 25.7409 3.05644 25.7409 3.57978V6.83788L18.3864 0.239046C18.0305 -0.0796818 17.4945 -0.0796818 17.1346 0.239046L0.469756 15.1917C0.0824744 15.538 0.0472669 16.1361 0.39543 16.5256C0.73968 16.9152 1.3343 16.9506 1.72158 16.6004L3.69711 14.8257V33.426C3.69711 34.2957 4.39735 35 5.26188 35H30.7286C31.5932 35 32.2934 34.2957 32.2934 33.426V15.2468L33.7995 16.6004C33.9794 16.7617 34.2024 16.8404 34.4254 16.8404C34.6836 16.8404 34.9418 16.7342 35.1256 16.5256C35.4699 16.1361 35.4386 15.538 35.0513 15.1917ZM21.3791 26.7682H19.9473V22.0974C19.9473 21.216 19.8104 20.5825 19.5366 20.2048C19.2627 19.8231 18.8128 19.6342 18.1908 19.6342C17.6627 19.6342 17.2129 19.8821 16.8373 20.3779C16.4618 20.8737 16.274 21.46 16.274 22.1368V26.7721H14.8422V21.9519C14.8422 20.4054 14.2515 19.6342 13.0662 19.6342C12.5185 19.6342 12.0687 19.8703 11.7088 20.3425C11.3489 20.8147 11.1728 21.4128 11.1728 22.1447V26.7721H9.74106V18.6308H11.1728V19.9175H11.2002C11.7753 18.9298 12.6163 18.438 13.7234 18.438C14.2633 18.438 14.7444 18.5875 15.1552 18.8866C15.5698 19.1856 15.8593 19.5909 16.0197 20.1025C16.6182 18.9928 17.518 18.438 18.7111 18.438C20.4911 18.438 21.3791 19.5398 21.3791 21.7472V26.7682ZM27.3643 20.6769H23.6637C23.3038 20.6769 23.1747 20.5471 23.1747 20.2874C23.1747 20.1261 23.1707 20.0592 23.3507 19.8545L25.8856 17.5251C26.3512 17.0568 26.7345 16.7066 26.7345 16.2148C26.7345 15.4711 26.3903 15.0736 25.4827 15.0736C24.7512 15.0736 24.1487 15.3766 24.1487 16.3131C24.1487 16.502 23.9688 16.7145 23.6989 16.7145C23.3311 16.7145 23.1747 16.4784 23.1747 16.3131C23.1747 15.1091 24.0431 14.0702 25.6627 14.0702C26.9458 14.0702 27.7712 14.9438 27.7712 16.0574C27.7712 16.6909 27.3956 17.2221 27.0084 17.6549L24.9194 19.6657L27.3683 19.6696C27.6343 19.6696 27.7712 19.8821 27.7712 20.189C27.7712 20.4802 27.6069 20.6769 27.3643 20.6769Z" fill="black"/>
</svg>
