<svg width="36" height="34" viewBox="0 0 36 34" fill="none" xmlns="http://www.w3.org/2000/svg">
<path d="M9.91513 20.1526C10.0381 19.9638 10.0562 19.7258 9.9635 19.5205L8.30932 15.8608C8.20175 15.6227 7.96349 15.4695 7.70081 15.4695H5.12064C4.85803 15.4695 4.6197 15.6227 4.51204 15.8609L2.85803 19.5206C2.76538 19.7258 2.78356 19.9638 2.90648 20.1526C3.02948 20.3415 3.2403 20.4555 3.46663 20.4555H4.3897C4.27604 20.7191 4.21299 21.0094 4.21299 21.3138V21.6749C4.21299 21.9794 4.27604 22.2696 4.3897 22.5332H0.822415C0.453986 22.5332 0.155273 22.8301 0.155273 23.1964V32.627C0.155273 32.9932 0.453986 33.2902 0.822415 33.2902H9.2911C9.65953 33.2902 9.95824 32.9932 9.95824 32.627V23.1964C9.95824 22.8302 9.65953 22.5333 9.2911 22.5333H8.43183C8.54557 22.2696 8.60862 21.9794 8.60862 21.6749V21.3139C8.60862 21.0094 8.54557 20.7192 8.43183 20.4556H9.35498C9.58131 20.4555 9.79221 20.3414 9.91513 20.1526ZM5.55228 16.7957H7.26925L8.32383 19.1291H6.41081H4.49778L5.55228 16.7957ZM7.27434 21.3138V21.6749C7.27434 22.1481 6.88689 22.5332 6.41081 22.5332C5.93472 22.5332 5.54736 22.1481 5.54736 21.6749V21.3138C5.54736 20.8406 5.93472 20.4555 6.41081 20.4555C6.88689 20.4555 7.27434 20.8406 7.27434 21.3138ZM8.62396 23.8596V25.7712H5.96957C5.60115 25.7712 5.30243 26.0681 5.30243 26.4343C5.30243 26.8006 5.60115 27.0975 5.96957 27.0975H8.62396V28.7261H5.96957C5.60115 28.7261 5.30243 29.023 5.30243 29.3892C5.30243 29.7555 5.60115 30.0524 5.96957 30.0524H8.62396V31.9639H1.48956V23.8596H8.62396ZM17.8951 16.6667C17.8951 17.0329 17.5964 17.3299 17.228 17.3299H17.0626C16.6942 17.3299 16.3955 17.0329 16.3955 16.6667C16.3955 16.3004 16.6942 16.0035 17.0626 16.0035H17.228C17.5964 16.0035 17.8951 16.3003 17.8951 16.6667ZM29.5049 13.7596C29.5049 14.1259 29.2062 14.4228 28.8378 14.4228H28.6725C28.304 14.4228 28.0053 14.1259 28.0053 13.7596C28.0053 13.3934 28.304 13.0964 28.6725 13.0964H28.8378C29.2062 13.0964 29.5049 13.3934 29.5049 13.7596ZM31.827 16.6667C31.827 17.0329 31.5282 17.3299 31.1598 17.3299H30.9945C30.6261 17.3299 30.3274 17.0329 30.3274 16.6667C30.3274 16.3004 30.6261 16.0035 30.9945 16.0035H31.1598C31.5282 16.0035 31.827 16.3003 31.827 16.6667ZM33.0558 10.3407H29.7143C29.742 10.2679 29.7572 10.1889 29.7572 10.1064C29.7572 9.74015 29.4584 9.44321 29.09 9.44321H24.8558C24.4873 9.44321 24.1886 9.74015 24.1886 10.1064C24.1886 10.1889 24.2038 10.2679 24.2315 10.3407H13.7845C14.0433 9.92062 14.1927 9.42696 14.1927 8.89924C14.1927 7.37309 12.9436 6.13153 11.4084 6.13153H5.64326C5.11246 6.13153 4.61586 6.28 4.19323 6.53731V2.00695C4.19323 0.900269 3.2875 0 2.17421 0C1.06092 0 0.155273 0.900269 0.155273 2.00687V19.9856C0.155273 20.3518 0.453986 20.6487 0.822415 20.6487C1.19084 20.6487 1.48956 20.3518 1.48956 19.9856V2.00687C1.48956 1.63159 1.79677 1.32628 2.17438 1.32628C2.55181 1.32628 2.85895 1.63159 2.85895 2.00687V13.4342C2.85895 13.8004 3.15766 14.0973 3.52609 14.0973C3.89452 14.0973 4.19323 13.8004 4.19323 13.4342V11.6671H12.8583V17.3672C12.8583 18.8661 14.085 20.0855 15.5929 20.0855H34.0299V22.9684H11.8979C11.5294 22.9684 11.2307 23.2653 11.2307 23.6316C11.2307 23.9978 11.5294 24.2948 11.8979 24.2948H31.3264V25.7361C31.3264 26.1023 31.6251 26.3993 31.9935 26.3993H34.6972C35.0656 26.3993 35.3643 26.1023 35.3643 25.7361V12.6354C35.3642 11.3702 34.3287 10.3407 33.0558 10.3407ZM11.4084 10.3407H5.64326C4.84369 10.3407 4.19323 9.69414 4.19323 8.89924C4.19323 8.1045 4.84369 7.45789 5.64326 7.45789H11.4084C12.2079 7.45789 12.8584 8.1045 12.8584 8.8994C12.8583 9.69414 12.2078 10.3407 11.4084 10.3407ZM34.0299 25.0729H32.6606V24.2948H34.0299V25.0729ZM34.0299 18.7592H15.5929C14.8208 18.7592 14.1926 18.1347 14.1926 17.3672V11.6671H33.0558C33.5929 11.6671 34.0299 12.1015 34.0299 12.6354V18.7592ZM27.1832 16.6667C27.1832 17.0329 26.8844 17.3299 26.516 17.3299H26.3507C25.9822 17.3299 25.6835 17.0329 25.6835 16.6667C25.6835 16.3004 25.9822 16.0035 26.3507 16.0035H26.516C26.8844 16.0035 27.1832 16.3003 27.1832 16.6667ZM20.217 13.7596C20.217 14.1259 19.9183 14.4228 19.5499 14.4228H19.3845C19.0161 14.4228 18.7174 14.1259 18.7174 13.7596C18.7174 13.3934 19.0161 13.0964 19.3845 13.0964H19.5499C19.9183 13.0964 20.217 13.3934 20.217 13.7596ZM24.8611 13.7596C24.8611 14.1259 24.5624 14.4228 24.194 14.4228H24.0286C23.6602 14.4228 23.3614 14.1259 23.3614 13.7596C23.3614 13.3934 23.6602 13.0964 24.0286 13.0964H24.194C24.5624 13.0964 24.8611 13.3934 24.8611 13.7596ZM22.5391 16.6667C22.5391 17.0329 22.2404 17.3299 21.872 17.3299H21.7066C21.3382 17.3299 21.0395 17.0329 21.0395 16.6667C21.0395 16.3004 21.3382 16.0035 21.7066 16.0035H21.872C22.2404 16.0035 22.5391 16.3003 22.5391 16.6667Z" fill="black"/>
</svg>
