<svg width="36" height="35" viewBox="0 0 36 35" fill="none" xmlns="http://www.w3.org/2000/svg">
<path d="M27.6667 20.4444C27.5143 20.4444 27.3575 20.4666 27.2005 20.5107L26.61 20.6761L25.74 18.5218C25.2523 17.3142 23.8106 16.3317 22.5263 16.3317H12.9778C11.6936 16.3317 10.2518 17.3143 9.76423 18.522L8.89578 20.6722L8.31938 20.5108C8.16239 20.4668 8.00554 20.4445 7.85317 20.4445C7.0871 20.4445 6.53094 21.0032 6.53094 21.7729C6.53094 22.5327 7.07648 23.1725 7.81588 23.3646C7.41043 24.5028 7.09534 26.209 7.09534 27.3299V31.914C7.09534 32.8926 7.87845 33.6887 8.84117 33.6887H9.48126C10.444 33.6887 11.2271 32.8926 11.2271 31.914V31.0564H24.2768V31.914C24.2768 32.8926 25.0599 33.6887 26.0227 33.6887H26.663C27.6258 33.6887 28.4089 32.8926 28.4089 31.914V27.3299C28.4089 26.2101 28.0943 24.5062 27.6896 23.368C28.4362 23.1806 28.9889 22.5374 28.9889 21.7729C28.9888 21.003 28.4328 20.4444 27.6667 20.4444ZM9.98113 22.2331L11.4003 18.7186C11.692 17.9962 12.5592 17.4052 13.3274 17.4052H22.1771C22.9453 17.4052 23.8124 17.9962 24.1042 18.7186L25.5234 22.2331C25.8151 22.9555 25.4253 23.5466 24.6572 23.5466H10.8473C10.0792 23.5466 9.68936 22.9555 9.98113 22.2331ZM13.7437 27.9479C13.7437 28.3384 13.4295 28.6578 13.0454 28.6578H10.149C9.76492 28.6578 9.45067 28.3384 9.45067 27.9479V26.7736C9.45067 26.3832 9.76492 26.0637 10.149 26.0637H13.0454C13.4295 26.0637 13.7437 26.3832 13.7437 26.7736V27.9479ZM26.022 27.9479C26.022 28.3384 25.7077 28.6578 25.3236 28.6578H22.4275C22.0434 28.6578 21.7292 28.3384 21.7292 27.9479V26.7736C21.7292 26.3832 22.0434 26.0637 22.4275 26.0637H25.3236C25.7077 26.0637 26.022 26.3832 26.022 26.7736V27.9479Z" fill="black"/>
<path d="M34.5894 9.76095L18.5389 0.196843C18.3259 0.0699145 18.0492 6.10352e-05 17.7598 6.10352e-05C17.4704 6.10352e-05 17.1938 0.0699145 16.9808 0.196843L0.930283 9.76095C0.488518 10.0242 0.155273 10.6154 0.155273 11.136V33.9352C0.155273 34.5223 0.625112 35.0001 1.20277 35.0001H3.00615C3.58381 35.0001 4.05365 34.5223 4.05365 33.9352V14.642C4.05365 14.4464 4.21021 14.2871 4.40281 14.2871H31.1165C31.3091 14.2871 31.4657 14.4464 31.4657 14.642V33.9352C31.4657 34.5223 31.9356 35.0001 32.5132 35.0001H34.3167C34.8944 35.0001 35.3642 34.5223 35.3642 33.9352V11.136C35.3644 10.6154 35.0311 10.0242 34.5894 9.76095Z" fill="black"/>
</svg>
